<svg width="400" height="400" viewBox="0 0 400 400" fill="none" xmlns="http://www.w3.org/2000/svg">
<path d="M200 400C310.457 400 400 310.457 400 200C400 89.5431 310.457 0 200 0C89.5431 0 0 89.5431 0 200C0 310.457 89.5431 400 200 400Z" fill="black"/>
<path d="M305.859 301.133L297.829 308.891L290.222 317.139L281.747 324.43L277.976 327.158L271.402 331.7L265.36 332.058L261.198 330.602L254.776 325.854L245.605 318.247L235.576 306.936L229.186 299.394L219.624 287.626L210.485 278.194L204.976 274.38L200.358 272.457L195.696 273.304L188.199 277.825L183.95 281.943L176.409 288.322L156.545 310.293L148.537 317.139L144.288 321.246L136.768 326.68L129.792 327.027L121.969 322.681L112.373 312.771L100.964 300.046L94.1289 292.038L83.1324 282.562L76.2866 274.554L74.0372 270.338L69.5169 262.829L69.1582 255.864L74.8521 248.518L82.4585 240.282L89.5434 232.502L109.798 215.637L116.416 208.313L119.252 205.575L124.033 197.284L123.685 190.308L118.665 184.19L88.5329 153.134L81.698 145.125L77.5905 140.877L72.6248 131.966L71.3423 124.979L76.5582 118.09L80.3505 113.516L88.8372 106.213L96.8238 100.302L104.832 93.467L115.699 81.1013L124.631 74.2772L132.618 69.3004L139.583 68.942L146.472 74.1687L157.893 85.9694L172.019 102.453L188.036 117.112L194.458 121.861L198.609 124.251L204.194 123.415L210.301 119.34L217.364 113.407L223.981 106.083L242.454 86.4039L254.255 74.9837L261.307 69.996L266.903 68.2246L271.076 68.757L276.118 73.0168L279.791 75.8636L286.169 83.4051L296.177 96.5749L303.49 104.181L314.943 114.113L325.451 124.979L329.526 131.086L330.84 136.215L329.363 141.311L324.614 147.733L308.565 163.272L300.556 170.107L288.788 179.669L282.637 186.537L278.867 190.199L275.042 196.632L273.564 201.717L274.89 205.923L278.976 212.029L289.94 223.352L315.117 246.53L321.952 254.538L325.136 258.765L330.134 265.817L330.471 273.717L326.124 282.476L318.105 290.245L305.859 301.133ZM120.915 105.344L124.066 111.429L124.598 107.257L123.24 104.92L120.915 105.344ZM99.6165 129.619V128.685L97.3021 128.185V129.119L98.6712 130.532L99.6165 129.619ZM111.765 125.164V123.306H109.907L108.962 124.219L109.418 124.686V125.62L110.809 126.109L111.765 125.164ZM118.817 120.176V119.242H116.959L116.492 119.698V120.633H118.35L118.817 120.176ZM115.003 125.686V128.468L116.829 130.358L128.988 125.914L117.416 123.404L115.003 125.686ZM108.798 136.27L109.766 133.499L109.309 133.02L107.929 132.542L106.039 134.368V137.15L108.798 136.27ZM129.608 113.385V115.243L131.455 116.199L133.345 114.363L131.042 112.94L129.608 113.385ZM130.911 121.307L128.629 118.949L126.315 118.449L126.717 122.632L129.977 123.154L130.911 121.307ZM118.959 142.018L123.588 143.028L121.316 139.768L117.644 136.922L117.22 134.585L113.96 132.216L116.198 137.367H117.133L118.959 142.018ZM113.395 140.996L112.026 139.584L109.222 140.464L109.657 142.8L111.037 143.289L113.395 140.996ZM125.163 131.434L125.576 134.694L129.292 134.759L128.76 138.921L131.607 135.259L125.163 131.434ZM135.019 125.555L134.519 127.87L142.843 129.869V128.935L136.399 125.11L135.019 125.555ZM138.04 140.007L140.898 135.411L138.181 130.717H137.257L136.801 130.239L134.487 129.739L133.052 132.042L138.04 140.007ZM117.937 147.614L122.066 150.874L121.175 148.07L119.806 146.658L117.937 147.614ZM145.657 128.055L145.114 133.151L147.352 138.301L149.688 137.867L151.557 133.26L148.852 128.565L145.657 128.055ZM127.239 146.799H126.315L125.826 148.179L127.195 149.592L129.064 148.7L127.239 146.799ZM125.174 159.773L122.871 158.339L126.695 151.895L119.23 153.634L121.925 159.252L125.174 159.773ZM151.731 125.827L155.784 133.792L156.643 138.454L152.394 142.561L139.355 144.213L138.387 146.984L140.18 150.722L146.244 149.428L145.82 147.103L148.167 145.745L152.275 149.994L157.393 149.613L158.349 147.766L157.447 145.897L155.578 146.799L154.209 145.375L158.99 137.095L158.555 134.759L160.946 130.619L151.731 125.827ZM137.051 143.702H135.193L134.682 146.017L136.051 147.429L137.051 143.702ZM135.019 153.895L137.355 153.471L138.268 154.416L146.168 154.079V152.221L133.183 151.08L131.726 154.34L132.65 155.286H134.497L135.019 153.895ZM134.41 162.707L133.519 160.838L134.019 158.524L131.716 157.089H128.934L123.729 163.044L124.642 163.989L132.998 164.12L134.41 162.707ZM139.604 157.687L139.094 160.947L136.747 162.305V164.163H138.605L142.375 160.501L142.441 156.785L139.604 157.687ZM187.949 241.618L188.97 236.066L192.23 233.795L189.937 231.437L186.677 232.773L187.134 233.251L185.297 232.284L184.895 228.101L186.297 227.655L187.286 223.96L185.449 223.004L183.102 224.352L182.189 223.417L182.657 222.95L180.831 221.07L182.244 219.701L181.798 218.299L186.993 213.268L189.296 214.702L190.242 213.79V211.931L188.851 211.442L189.796 210.53L189.383 207.27L187.058 207.694L184.689 209.987L183.32 208.563V206.705L185.667 205.347V202.565L183.385 200.207L185.286 197.447L183.852 199.75L188.427 204.466L189.372 203.554L188.937 201.228L187.112 199.338L187.188 194.698L190.035 191.025H192.817L195.642 189.21L197.956 189.71L197.891 193.426L197.424 193.883H196.49V194.806L196.946 195.284L199.271 194.86L200.63 197.197L195.816 207.346L197.218 206.9L196.75 207.357L196.261 208.748L198.587 208.313L199.065 207.857V206.933L198.609 206.455H197.685L202.39 202.815H204.248L209.301 206.151L209.681 211.258L212.941 211.779L213.419 210.388H215.277L216.19 211.334L220.396 210.008L219.972 207.683L203.4 198.12L202.564 192.535L206.4 185.157L205.519 182.364L202.259 181.843L199.445 183.657L195.425 173.878L190.73 176.594L186.623 172.346H185.688L186.178 170.966L189.437 169.618L191.361 165.935L190.904 165.467V164.533L189.992 163.587L193.73 162.729L191.426 161.295L189.079 162.653L186.351 158.893L181.798 153.243L182.374 146.277L180.092 143.919L181.994 141.159L179.223 140.192L176.876 141.55H175.952L174.127 139.66L173.257 135.933L171.356 138.693L172.649 144.756L164.238 147.397L165.607 148.82L174.887 149.907L176.713 151.797L158.153 150.569L157.175 153.34L152.003 157.437L154.176 166.293L160.229 165.935L162.978 167.836L154.578 170.487L155.002 172.813L152.144 177.409L144.179 181.463L141.865 180.962L138.214 177.181L138.713 174.867L141.039 174.443L142.452 173.074V171.215L135.932 172.041L136.008 167.39L135.551 166.923L132.291 167.336L130.879 168.706H129.021L128.064 170.553L142.864 186.504L144.277 185.135L148.015 184.266L147.037 187.037L149.678 196.371L152.492 194.556L150.742 188.036L151.699 186.2L151.297 182.006L156.502 176.051L160.674 176.584L162.587 173.834L163.499 174.769L168.205 171.129L169.661 166.978L168.781 164.174L166.466 163.674L166.01 163.196L169.367 156.285L173.573 154.959L175.365 158.708L173.942 161.001H172.084L171.139 161.914L185.971 164.011L186.438 163.555L187.34 165.424L185.471 166.326L184.037 168.629L184.493 169.097L182.603 170.922V172.78L181.668 173.693L174.236 173.574L169.997 176.757L172.29 179.115L173.149 182.853L175.452 184.277L177.778 183.853L179.669 182.027V181.093L181.983 181.604L183.863 179.767L183.015 175.117L185.363 173.758L185.841 172.367L188.535 177.985L187.992 183.092L184.732 186.287L175.442 186.135L173.54 188.895L176.267 192.655L178.582 193.155L174.855 194.024L170.736 189.775L167.933 190.666L166.031 193.415L163.239 194.306L162.337 192.426L165.694 185.516L157.327 186.309L156.882 184.907H155.024L154.535 186.298L156.382 187.254L157.719 190.514L157.219 192.829L158.121 194.708L159.501 195.187L158.914 203.075L166.944 194.382L173.888 195.893L172.953 196.806V197.729L169.693 197.219L164.967 201.782L166.748 206.455L166.27 207.846L163.445 209.661L162.478 212.431L166.173 213.42L169.432 210.215H170.367L172.182 213.029L171.66 216.289L167.857 218.017L170.161 219.451L173.421 218.104L174.768 221.364L172.388 224.623L171.932 224.156L170.53 224.591L167.759 223.624L164.956 224.504L162.674 222.146L160.327 223.504L161.228 225.373L163.532 226.808L161.533 235.131L158.273 234.62L156.817 237.88L163.836 234.74L164.369 230.567L165.771 230.122L165.347 227.796L163.51 226.84L165.39 225.004L168.161 225.982L170.508 224.623L167.661 228.296L168.031 234.349L169.4 235.761L170.812 234.392L171.334 231.132L172.28 230.219L174.572 231.654L175.996 230.285L175.561 227.948L176.963 227.514L178.354 227.992L178.745 232.186L177.343 232.621L174.953 236.772L168.878 238.945L166.977 241.705L172.105 240.39L175.29 244.628L180.886 243.791L181.842 241.944L184.167 241.52V243.379H186.014L187.949 241.618ZM160.25 143.148L159.762 144.528L161.131 145.94H162.065L161.174 143.137L160.25 143.148ZM145.494 164.772L145.94 166.174L147.331 166.663L149.21 164.826V162.968L147.83 162.49L145.951 163.381L145.494 164.772ZM172.845 168.466L174.692 169.423L176.561 168.531L177.05 167.141L174.746 165.706L172.41 167.065L172.845 168.466ZM226.991 124.284L225.557 126.588L225.981 128.913L231.142 125.74L230.24 123.871L226.991 124.284ZM233.076 121.133L232.587 122.513L233.957 123.936H234.891L235.836 123.024L234 121.133H233.076ZM250.582 187.417L251.527 186.493L254.787 186.081L256.2 184.712L247.387 184.103L243.801 175.692L241.769 186.809L239.879 188.634L238.184 178.387L241.063 172.856L240.65 169.596L234.25 162.99L225.394 165.163L225.285 171.683L223.384 174.443L220.732 166.032L213.821 162.675L208.845 154.688L210.257 153.319L209.812 151.917L211.246 149.624L216.364 149.244L215.864 151.558L217.69 153.438L220.015 153.014L219.189 146.495L224.307 146.114L223.894 142.855L222.525 141.442V139.584L220.221 138.149L218.798 140.453L216.918 141.355L210.833 144.506L208.41 150.504L203.727 153.221L205.096 154.633L205.965 158.361L205.487 158.817L203.194 157.383L193.86 160.023L195.664 162.838L208.703 162.12L213.278 165.913L214.126 171.498L217.386 173.878L216.44 174.79L220.08 179.496L224.242 180.952L227.046 180.072L227.545 177.757L228.013 177.301L235.391 181.136L236.26 184.864L232.5 187.591L230.664 185.711V183.853L228.828 182.886L226.752 195.86L230.414 199.642L231.349 198.729H232.283L238.401 193.719L242.106 194.708L248.18 192.535L249.55 193.959H250.473L251.451 191.188L250.093 188.841L250.571 188.384L250.582 187.417ZM141.778 221.353L147.754 225.634H148.678L149.156 225.178L154.589 232.697L155.98 233.186L157.382 232.741L152.492 219.19L153.459 216.419L150.254 214.051L146.994 217.245L148.83 218.201L150.71 217.3L151.166 217.778L147.417 219.57L146.961 219.103L146.016 220.016V219.103L145.548 219.57L143.234 219.06L141.865 217.647L142.354 216.256L140.963 215.778L139.561 216.213L137.605 222.733L139.92 223.233L141.778 221.353ZM249.93 112.081V113.005L250.843 113.95L252.234 114.439L252.701 113.983V113.059L252.234 112.581L249.93 112.081ZM227.285 134.009L227.133 143.3L228.502 144.713L234.587 141.561L234.163 139.236L227.752 133.553L227.285 134.009ZM238.042 129.076L231.968 131.249L230.979 134.944L233.337 132.662L236.086 135.498L239.781 136.487L238.042 129.076ZM203.074 165.674L200.771 164.239L196.109 166.945L196.555 168.347L198.391 169.303L202.607 167.043L203.074 165.674ZM258.351 108.495L258.797 109.897L261.122 109.473L263.491 107.191L265.327 108.147L267.664 107.724L262.6 104.388L258.351 108.495ZM157.295 209.987L160.555 209.574L159.196 207.237L157.36 206.27L157.295 209.987ZM252.614 121.415L251.256 119.068H248.474V119.992L250.745 123.252L252.614 121.415ZM128.032 241.108L131.357 236.978L129.042 236.478L128.564 236.935H127.641L125.294 238.293L125.717 240.619L128.032 241.108ZM258.71 118.264L259.644 117.351L257.363 114.982H254.581L255.461 117.786L258.721 119.231L258.71 118.264ZM245.605 123.621L244.193 124.99V126.849L247.974 123.197L245.605 123.621ZM140.289 230.111L140.822 225.938L135.171 230.491L136.073 232.36H137.931L140.289 230.111ZM100.192 268.012L99.7579 265.687H98.8341L97.878 267.524L99.2472 268.936L100.192 268.012ZM244.116 127.826L240.857 131.945L245.54 129.239L244.116 127.826ZM154.817 220.635L160.435 217.941L162.358 214.257L159.598 212.355L155.839 215.072L154.817 220.635ZM234.902 152.254L234.011 150.374L231.685 149.874L230.773 148.929H229.795L229.371 146.603L227.035 147.027L226.535 149.342L233.435 153.634L234.902 152.254ZM208.595 170.411L206.269 170.835L204.846 172.204L203.009 171.248L201.13 172.139L199.206 176.757L201.043 177.713L202.933 175.888L209.833 180.18L209.507 171.346L210.909 170.911V169.053L209.518 168.564L208.595 170.411ZM114.677 261.33L114.253 258.993L110.515 259.863L109.559 261.71L110.005 263.112H111.863L114.677 261.33ZM179.875 194.556L181.679 198.305L179.799 199.207L175.626 198.675L179.875 194.556ZM254.396 125.164V126.088L249.724 127.87L248.702 133.422L259.568 123.849L254.396 125.164ZM126.511 248.051L129.77 251.311H131.629L135.28 255.093L153.166 240.521L154.176 235.892L142.365 248.236H139.572L137.29 245.878L138.724 243.574L135.052 240.727L126.511 248.051ZM144.907 231.154L145.353 232.556L147.678 232.132L148.167 230.741L146.342 228.861L144.907 231.154ZM242.095 138.899H243.03L244.921 137.074V136.139L243.53 135.661L241.65 137.486L242.095 138.899ZM240.161 143.506L237.412 141.605L235.999 142.974V144.832L237.379 145.321L238.281 147.19L236.336 152.743L237.662 156.937H238.586L239.064 156.481L240.161 143.506ZM228.784 158.187L228.339 156.785L226.948 156.307L225.079 157.198V158.132L226.904 160.023H227.828L228.784 158.187ZM106.093 274.195L108.407 274.695L111.667 271.501L111.211 271.022H110.287L109.342 271.935L106.082 272.348L106.093 274.195ZM187.286 194.687L185.384 197.436L187.286 194.687ZM266.556 118.851L266.077 120.242L266.99 121.187H268.848V119.329L267.936 118.394L267.468 118.851H266.556ZM272.206 114.298L276.379 114.83L278.726 113.472V112.548L277.813 111.603L272.206 114.298ZM143.81 240.434L145.646 241.39V240.466L144.288 238.119L143.342 239.032L143.81 240.434ZM281.16 106.55L280.66 108.865H282.518L283.018 106.55H281.16ZM108.386 273.772V274.695L107.929 274.228L108.386 273.772ZM105.941 280.693L105.506 279.302L104.593 278.357L102.246 279.705L103.615 281.128H105.474L105.941 280.693ZM266.425 124.425H263.643L261.752 126.251L266.186 139.29L268.707 126.783L266.425 124.425ZM129.053 259.243L129.542 257.852L129.086 257.385H127.228V258.309L126.75 258.765L129.053 259.243ZM193.165 199.892L189.416 201.685L192.132 206.379L192.589 206.846L194.479 205.021L195.566 192.959L191.806 195.686L193.165 199.892ZM246.083 145.006L243.736 146.353L246.04 147.788L248.387 146.43L246.083 145.006ZM257.797 139.149L253.146 139.073L256.406 141.453L261.155 135.02L257.895 135.433L257.797 139.149ZM255.939 167.401H254.081L249.495 163.609L249.115 158.491L246.388 154.731L247.409 149.168L241.346 150.472L241.715 156.513H244.508L245.855 158.861L241.607 162.968L241.998 168.086L244.29 169.52L245.703 168.151L244.812 166.271L246.225 164.902H248.083L254.961 170.118L257.308 168.771L261.905 171.628L266.708 162.414L255.939 167.401ZM126.576 267.046L130.303 266.176L131.259 264.329L128.51 262.427L127.108 262.873L125.674 265.165L126.576 267.046ZM271.478 125.849V127.707H272.412L272.869 128.185L273.336 127.728V126.794L271.478 125.849ZM217.32 200.228L221.004 202.141L223.264 205.401L226.969 206.39L229.317 205.031L230.186 208.759H231.11L231.588 208.302V206.444L230.24 204.097L230.708 203.641L226.546 202.184L225.655 200.305H223.797L223.34 199.837L222.862 200.294L218.255 198.359L216.44 195.545L216.527 189.971L212.876 186.2L211.442 188.493L210.529 187.548H209.605L209.094 189.862H207.236L206.226 195.426L209.486 196.871L211.833 195.513L211.387 194.111L212.8 192.742L216.397 200.228L212.691 199.24L214.951 203.467L216.82 202.565L217.32 200.228ZM123.74 274.521V273.598L122.349 273.109L120.936 274.478V275.413L123.74 274.521ZM261.97 144.376L259.666 142.941L252.147 148.374L256.743 151.232L261.438 148.527V147.592L261.905 147.136L261.97 144.376ZM156.219 248.573L153.492 244.813L146.896 250.246L148.743 251.202L152.97 248.019L156.219 248.573ZM165.053 248.247L164.206 242.661L158.186 242.096L164.108 249.17L165.053 248.247ZM193.501 212.475L194.023 209.215H193.088L191.665 211.508L193.501 212.475ZM269.566 137.063L269.076 138.443L269.511 139.845L270.902 140.333L273.716 138.519L274.216 136.204L271.902 135.704L269.566 137.063ZM185.047 220.733L188.753 221.722L191.448 227.34L192.828 227.829L193.773 226.916L195.131 229.263L196.522 229.752L198.283 235.348L204.302 236.848L192.469 221.787L195.729 220.44L196.185 220.918L203.661 218.256L202.205 222.407L208.779 217.865V216.941L212.039 215.604L197.696 212.116L194.957 209.28L195.36 213.475L194.414 214.387L193.914 216.702L185.047 220.733ZM137.355 265.828L139.202 266.795L143.419 264.535V260.819L140.571 264.492H138.713L137.355 265.828ZM221.808 185.907L222.699 187.776L223.612 188.721L225.981 186.439L225.079 184.57L222.764 184.07L221.808 185.907ZM267.512 146.234L265.208 144.8H264.284L263.339 145.712L262.763 152.667L263.22 153.145H264.143L267.512 146.234ZM117.872 291.114L118.361 289.723L117.905 289.256L115.59 288.756V290.614L117.872 291.114ZM263.556 159.219L264.534 156.448L260.829 155.459L253.831 157.633L254.711 160.436L259.329 162.37L263.556 159.219ZM200.945 210.704L203.27 210.269L204.683 208.9L203.313 207.487L200.966 208.846L200.945 210.704ZM157.479 255.516V254.593L157.023 254.114L154.709 253.615L153.296 254.984L155.132 255.951L157.479 255.516ZM277.357 139.464L276.389 141.311L278.226 143.202L279.16 142.289L279.682 139.03L277.357 139.464ZM235.804 180.604L235.337 181.06V180.126L235.804 180.604ZM248.485 171.987L248.963 171.531L247.572 171.042L245.214 173.324L248.474 172.911L248.485 171.987ZM152.698 263.807L150.351 265.155L152.177 267.046L155.882 268.034L159.642 265.307L153.122 266.133L152.698 263.807ZM136.518 288.648V285.866L135.171 283.519L132.4 282.541L130.966 284.844L132.335 286.257H134.193L136.518 288.648ZM173.377 250.224L171.551 248.334H169.693L168.281 249.714L173.377 250.224ZM163.51 256.049L161.163 257.407L160.25 259.309L160.707 259.787H161.631L163.043 258.417L163.51 256.049ZM231.805 198.164L231.327 198.62L230.871 198.142L231.805 198.164ZM211.279 231.741L214.604 227.612L207.258 221.918L207.204 225.634L211.376 226.166L211.833 226.634L211.279 231.741ZM132.096 303.86L132.574 302.48L131.683 300.601L131.237 299.199L130.292 300.122V303.828L132.096 303.86ZM222.721 215.213L221.341 214.724L219.461 215.626L218.972 217.006L219.863 219.809L229.132 220.896V219.973L222.721 215.213ZM222.417 233.784L225.774 227.807L222.156 221.287L218.44 221.222L216.538 223.982L221.569 229.176L222.417 233.784ZM202.249 245.997L201.369 243.205L199.076 240.847L196.74 242.194L202.249 245.997ZM204.835 258.124L203.031 255.31L206.802 251.648L207.791 247.953L198.467 249.659V251.518L200.293 253.408L201.162 257.135L204.835 258.124ZM210.648 243.357L208.823 241.466L206.476 242.824L208.768 245.182H210.627L210.648 243.357ZM232.881 219.092L234.065 231.654L237.325 231.241L240.205 225.71L236.575 220.081L232.881 219.092ZM246.833 246.725L247.811 243.955L246.909 242.085L244.573 242.509L242.736 241.553L248.952 230.969L248.061 228.166L251.864 222.646L240.824 215.974L241.682 220.624L243.964 222.983L246.138 231.849L229.74 240.412L223.72 238.923L224.981 246.834L232.435 246.03L232.022 242.77L235.771 240.977L239.846 247.073L246.833 246.725ZM221.384 240.271L220.961 237.946H219.102L218.124 240.716L219.483 243.064L221.384 240.271ZM231.892 251.137V249.279L228.197 248.29L224.449 250.094L215.658 247.627L214.245 248.996L215.114 252.724H216.972L220.732 249.996L222.558 251.887L231.892 251.137ZM216.853 262.003L216.016 256.418L213.256 254.506H210.474L209.497 257.276L209.04 256.809L206.204 259.548L203.879 259.972L202.922 261.819L204.292 263.231L215.44 263.416L216.853 262.003ZM227.111 259.385L227.187 254.734H226.263L223.916 256.092L223.416 258.407L222.471 259.319V260.243L219.667 261.134V263.916L221.982 264.416L223.406 262.123H224.34L227.111 259.385ZM252.94 242.607L252.527 239.347L250.68 238.38L250.191 239.771L250.636 241.173L252.94 242.607ZM231.696 263.177L231.207 264.557L232.109 266.426L233.5 266.915L235.858 264.633L235.413 263.231L233.576 262.275L231.696 263.177ZM236.043 282.736L236.999 280.9L235.184 278.086L240.422 270.273L230.208 270.099L229.306 268.23H227.448L226.491 270.077L228.784 271.511L229.219 273.837L231.044 275.728L229.143 278.477L230.49 280.824L236.043 282.736ZM250.082 247.204L250.528 248.605L252.375 249.562L254.7 249.138L256.113 247.758L252.907 245.389L250.082 247.204ZM246.822 279.661L247.3 278.281L246.866 276.879L245.018 275.923L242.204 277.727L242.65 279.129L244.486 280.096L246.822 279.661ZM266.838 276.738L264.111 272.978L260.383 273.848L248.604 284.334L248.55 287.126L249.919 288.539L261.264 276.651L264.034 277.618L266.838 276.738ZM275.792 268.99L276.292 266.676L273.553 263.84L271.217 264.264L270.717 266.578L272.075 268.925L273.923 269.881L275.792 268.99ZM269.815 293.983L267.121 288.365L267.207 282.791L262.926 288.767L267.936 294.885L269.815 293.983ZM257.156 300.753V299.818L256.243 298.873L253.896 300.231L254.342 301.633L255.722 302.122L257.156 300.753ZM280.649 284.453L282.051 284.008V283.073L281.594 282.606L280.203 282.117L278.334 283.019L280.649 284.453ZM261.622 312.01L260.742 309.207L257.482 307.762L260.188 312.456H261.122L261.622 312.01ZM295.666 275.402L294.71 277.249L295.59 280.042L296.992 279.607L297.481 278.216V276.358L296.568 275.413L295.666 275.402ZM273.26 305.24L274.694 302.948L274.249 301.546H273.314L271.891 303.839L272.325 305.24H273.26Z" fill="#FF0000"/>
</svg>
